<svg width="1392" height="1392" viewBox="0 0 1392 1392" fill="none" xmlns="http://www.w3.org/2000/svg">
<circle cx="696" cy="696" r="696" fill="#E0E0E0"/>
<mask id="mask0_261_520" style="mask-type:alpha" maskUnits="userSpaceOnUse" x="0" y="0" width="1392" height="1392">
<circle cx="696" cy="696" r="696" fill="#FFEDEF"/>
</mask>
<g mask="url(#mask0_261_520)">
<g clip-path="url(#clip0_261_520)">
<path d="M893.811 1327.9C841.061 1254.63 799.79 1112.99 794.906 1042.17L543.979 934.107L439.579 1327.9H893.811Z" fill="#F9C9B6" stroke="black" stroke-width="14.6526"/>
<mask id="mask1_261_520" style="mask-type:alpha" maskUnits="userSpaceOnUse" x="439" y="934" width="455" height="431">
<path d="M893.811 1364.53C841.061 1291.27 799.79 1112.99 794.906 1042.17L543.979 934.107L439.579 1364.53H893.811Z" fill="#AC6651"/>
</mask>
<g mask="url(#mask1_261_520)">
<g style="mix-blend-mode:multiply">
<ellipse cx="783.916" cy="926.78" rx="216.126" ry="197.811" fill="black"/>
</g>
</g>
<mask id="path-6-inside-1_261_520" fill="white">
<path fill-rule="evenodd" clip-rule="evenodd" d="M1003.29 710.354C1003.19 709.929 1003.09 709.504 1002.99 709.079C1002.89 708.654 1002.78 708.23 1002.68 707.806L942.621 457.131C942.561 456.876 942.501 456.622 942.44 456.368C942.379 456.114 942.317 455.859 942.256 455.605L941.994 454.511L941.989 454.512C904.558 302.694 751.524 209.344 599.231 245.832C446.938 282.32 352.823 434.885 388.256 587.182L388.249 587.184L450.491 846.967L450.542 846.955C489.381 996.795 641.282 1088.51 792.453 1052.29C943.623 1016.07 1037.47 865.478 1004.19 714.305L1004.24 714.295L1003.29 710.354Z"/>
</mask>
<path fill-rule="evenodd" clip-rule="evenodd" d="M1003.29 710.354C1003.19 709.929 1003.09 709.504 1002.99 709.079C1002.89 708.654 1002.78 708.23 1002.68 707.806L942.621 457.131C942.561 456.876 942.501 456.622 942.44 456.368C942.379 456.114 942.317 455.859 942.256 455.605L941.994 454.511L941.989 454.512C904.558 302.694 751.524 209.344 599.231 245.832C446.938 282.32 352.823 434.885 388.256 587.182L388.249 587.184L450.491 846.967L450.542 846.955C489.381 996.795 641.282 1088.51 792.453 1052.29C943.623 1016.07 1037.47 865.478 1004.19 714.305L1004.24 714.295L1003.29 710.354Z" fill="#F9C9B6"/>
<path d="M1003.29 710.354L989.027 713.704L989.034 713.736L989.042 713.768L1003.29 710.354ZM1002.99 709.079L988.74 712.493L988.74 712.493L1002.99 709.079ZM1002.68 707.806L988.432 711.22L988.439 711.252L988.447 711.284L1002.68 707.806ZM942.621 457.131L928.363 460.506L928.367 460.525L928.372 460.545L942.621 457.131ZM942.44 456.368L928.19 459.781L928.19 459.782L942.44 456.368ZM942.256 455.605L928.006 459.019L928.011 459.039L928.016 459.058L942.256 455.605ZM941.994 454.511L956.243 451.097L952.825 436.829L938.561 440.266L941.994 454.511ZM941.989 454.512L927.762 458.02L931.251 472.172L945.421 468.757L941.989 454.512ZM599.231 245.832L602.645 260.081V260.081L599.231 245.832ZM388.256 587.182L391.688 601.427L405.822 598.022L402.527 583.862L388.256 587.182ZM388.249 587.184L384.817 572.939L370.59 576.366L373.999 590.598L388.249 587.184ZM450.491 846.967L436.241 850.381L439.654 864.627L453.901 861.217L450.491 846.967ZM450.542 846.955L464.725 843.278L461.117 829.357L447.131 832.705L450.542 846.955ZM1004.19 714.305L1000.78 700.056L986.788 703.407L989.88 717.456L1004.19 714.305ZM1004.24 714.295L1007.65 728.544L1021.9 725.131L1018.48 710.881L1004.24 714.295ZM1017.56 707.004C1017.45 706.558 1017.35 706.111 1017.24 705.666L988.74 712.493C988.837 712.897 988.932 713.301 989.027 713.704L1017.56 707.004ZM1017.24 705.666C1017.13 705.219 1017.02 704.773 1016.91 704.327L988.447 711.284C988.545 711.686 988.643 712.089 988.74 712.493L1017.24 705.666ZM928.372 460.545L988.432 711.22L1016.93 704.392L956.871 453.717L928.372 460.545ZM956.88 453.756C956.817 453.488 956.753 453.221 956.689 452.954L928.19 459.782C928.248 460.023 928.306 460.264 928.363 460.506L956.88 453.756ZM956.689 452.955C956.625 452.686 956.56 452.419 956.496 452.153L928.016 459.058C928.075 459.3 928.133 459.541 928.19 459.781L956.689 452.955ZM927.744 457.925L928.006 459.019L956.505 452.192L956.243 451.097L927.744 457.925ZM945.421 468.757L945.426 468.756L938.561 440.266L938.556 440.268L945.421 468.757ZM956.215 451.005C916.858 291.371 755.948 193.216 595.817 231.582L602.645 260.081C747.1 225.471 892.259 314.017 927.762 458.02L956.215 451.005ZM595.817 231.582C435.685 269.948 336.727 430.365 373.984 590.502L402.527 583.862C368.918 439.405 458.19 294.691 602.645 260.081L595.817 231.582ZM391.68 601.429L391.688 601.427L384.824 572.937L384.817 572.939L391.68 601.429ZM464.74 843.553L402.498 583.77L373.999 590.598L436.241 850.381L464.74 843.553ZM447.131 832.705L447.08 832.717L453.901 861.217L453.952 861.205L447.131 832.705ZM436.358 850.631C477.198 1008.19 636.915 1104.62 795.867 1066.54L789.039 1038.04C645.65 1072.39 501.565 985.401 464.725 843.278L436.358 850.631ZM795.867 1066.54C954.819 1028.45 1053.49 870.113 1018.5 711.155L989.88 717.456C1021.45 860.842 932.428 1003.68 789.039 1038.04L795.867 1066.54ZM1000.82 700.045L1000.78 700.056L1007.6 728.555L1007.65 728.544L1000.82 700.045ZM989.042 713.768L989.986 717.709L1018.48 710.881L1017.54 706.94L989.042 713.768Z" fill="black" mask="url(#path-6-inside-1_261_520)"/>
</g>
<path d="M893.521 792.451C892.897 784.878 885.154 780.66 878.591 783.246C863.101 789.35 811.856 808.763 775.722 813.733C736.077 819.187 676.039 812.564 658.661 810.406C651.593 809.528 645.294 815.602 646.514 822.983C648.9 837.426 653.817 851.348 661.05 864.106C669.117 878.334 679.908 890.833 692.806 900.891C705.704 910.949 720.456 918.368 736.221 922.724C751.986 927.08 768.455 928.289 784.687 926.281C800.919 924.272 816.596 919.087 830.824 911.019C845.052 902.952 857.552 892.162 867.609 879.264C877.667 866.366 885.086 851.614 889.442 835.849C893.346 821.722 894.722 807.031 893.521 792.451Z" fill="#171921" stroke="#171921" stroke-width="14.6526"/>
<mask id="mask2_261_520" style="mask-type:alpha" maskUnits="userSpaceOnUse" x="653" y="788" width="234" height="132">
<path d="M885.728 788.283C887.618 803.56 886.481 819.06 882.381 833.897C878.281 848.735 871.298 862.62 861.832 874.759C852.366 886.898 840.602 897.054 827.211 904.646C813.82 912.239 799.064 917.12 783.787 919.01C768.51 920.9 753.01 919.762 738.172 915.662C723.335 911.562 709.45 904.58 697.311 895.114C685.172 885.647 675.016 873.883 667.423 860.492C659.831 847.101 654.95 832.346 653.06 817.069L885.728 788.283Z" fill="#171921"/>
</mask>
<g mask="url(#mask2_261_520)">
<circle cx="785.829" cy="935.256" r="78.7579" transform="rotate(-7.05286 785.829 935.256)" fill="#FC909F"/>
</g>
<path d="M538.484 543.98C561.074 553.138 615.777 554.97 653.874 489.033" stroke="black" stroke-width="14.6526" stroke-linecap="round"/>
<path d="M783.916 461.559C802.842 481.096 850.219 508.448 888.316 461.559" stroke="black" stroke-width="14.6526" stroke-linecap="round"/>
<path d="M728.969 318.694C782.696 316.252 876.961 286.458 824.211 186.821" stroke="black" stroke-width="14.6526"/>
<path d="M633.727 311.368C687.453 308.926 781.719 279.132 728.969 179.494" stroke="black" stroke-width="14.6526"/>
<path d="M501.853 351.663C555.58 349.221 649.845 319.427 597.096 219.789" stroke="black" stroke-width="14.6526"/>
<ellipse cx="617.351" cy="616.888" rx="32.9684" ry="49.4526" transform="rotate(-6.77646 617.351 616.888)" fill="black"/>
<ellipse cx="851.794" cy="580.255" rx="32.9684" ry="49.4526" transform="rotate(-6.27568 851.794 580.255)" fill="black"/>
<path d="M527.563 618.026L406.61 639.561" stroke="black" stroke-width="14.6526" stroke-linecap="round"/>
<path d="M514.802 567.75C511.355 555.043 519.757 542.408 532.782 540.711L665.543 523.411C677.579 521.842 688.812 530.3 690.631 542.302L709.171 664.617C710.991 676.618 702.707 687.619 690.671 689.188L572.045 704.645C560.973 706.088 550.406 699.025 547.476 688.223L514.802 567.75Z" stroke="black" stroke-width="14.6526"/>
<path d="M941.941 512.762C941.476 499.666 929.644 489.668 916.618 491.365L783.858 508.665C771.821 510.233 763.538 521.234 765.357 533.236L783.898 655.551C785.717 667.552 796.949 676.01 808.986 674.442L927.612 658.984C938.684 657.541 946.742 648.051 946.347 636.919L941.941 512.762Z" stroke="black" stroke-width="14.6526"/>
<path d="M699.352 600.553L776.482 589.176" stroke="black" stroke-width="14.6526"/>
<path d="M744.446 619.106C751.584 669.891 782.584 706.225 782.584 706.225C782.584 706.225 772.947 729.774 735.652 727.617" stroke="black" stroke-width="14.6526"/>
<path d="M456.064 660.012C447.528 657.202 438.315 655.706 428.883 655.706C390.444 655.706 359.283 679.516 362.946 723.474C366.762 769.264 394.107 785.748 432.546 785.748C436.823 785.748 441.01 785.372 445.074 784.653C449.509 783.868 453.796 782.674 457.895 781.113" stroke="black" stroke-width="29.3053"/>
<path d="M459.727 780.386C451.376 783.838 442.19 785.748 432.546 785.748C394.107 785.748 366.762 769.264 362.946 723.474C359.283 679.516 390.444 655.706 428.883 655.706C440.376 655.706 451.546 657.927 461.558 662.042L459.727 780.386Z" fill="#F9C9B6"/>
<path d="M445.074 686.844C430.421 680.129 398.186 676.588 386.464 716.15" stroke="black" stroke-width="14.6526"/>
<path d="M406.611 688.674C414.548 695.39 429.689 716.148 426.758 745.453" stroke="black" stroke-width="14.6526"/>
<path d="M840.886 1210.49L841.399 1210.61L841.924 1210.65C1010.89 1224.59 1112.21 1299.64 1185.74 1402.99H184.529C244.238 1295.51 329.163 1227.09 466.849 1195.7C525.508 1182.33 593.844 1175.66 674.02 1175.66C708.658 1175.66 735.612 1180.94 761.19 1187.91C770.665 1190.49 780.189 1193.39 789.932 1196.35C806.059 1201.25 822.786 1206.33 840.886 1210.49Z" fill="#F4D150" stroke="black" stroke-width="14.6526"/>
<path d="M424.668 1203.65L458.197 1131.86C458.998 1130.15 460.988 1129.33 462.772 1129.96C601.703 1179.14 728.091 1175.68 845.219 1143.07C846.693 1142.66 848.268 1143.2 849.171 1144.44L900.207 1214.23C901.61 1216.15 900.895 1218.86 898.683 1219.72C775.575 1268.07 544.572 1259.85 426.443 1208.49C424.569 1207.68 423.803 1205.5 424.668 1203.65Z" fill="white" stroke="black" stroke-width="14.6526"/>
</g>
<defs>
<clipPath id="clip0_261_520">
<rect width="732.632" height="1172.21" fill="white" transform="translate(329.685 157.517)"/>
</clipPath>
</defs>
</svg>
